<mxfile host="app.diagrams.net" agent="Mozilla/5.0 (Windows NT 10.0; Win64; x64) AppleWebKit/537.36 (KHTML, like Gecko) Chrome/130.0.0.0 Safari/537.36 Edg/130.0.0.0" version="26.0.5">
  <diagram name="Page-1" id="tW8I567GuP_UTgK84lG6">
    <mxGraphModel dx="2063" dy="1502" grid="1" gridSize="10" guides="1" tooltips="1" connect="1" arrows="1" fold="1" page="0" pageScale="1" pageWidth="827" pageHeight="1169" math="0" shadow="0">
      <root>
        <mxCell id="0" />
        <mxCell id="1" parent="0" />
        <mxCell id="Pv-6bgilXGz2zJRjLQK--76" value="business_attributes" style="swimlane;fontStyle=1;align=center;verticalAlign=top;childLayout=stackLayout;horizontal=1;startSize=36.888888888888886;horizontalStack=0;resizeParent=1;resizeParentMax=0;resizeLast=0;collapsible=0;marginBottom=0;" parent="1" vertex="1">
          <mxGeometry x="290" y="100" width="240" height="155.88888888888889" as="geometry" />
        </mxCell>
        <mxCell id="Pv-6bgilXGz2zJRjLQK--77" style="line;strokeWidth=1;fillColor=none;align=left;verticalAlign=middle;spacingTop=-1;spacingLeft=3;spacingRight=3;rotatable=0;labelPosition=right;points=[];portConstraint=eastwest;strokeColor=inherit;" parent="Pv-6bgilXGz2zJRjLQK--76" vertex="1">
          <mxGeometry y="36.888888888888886" width="240" height="8" as="geometry" />
        </mxCell>
        <mxCell id="Pv-6bgilXGz2zJRjLQK--78" value="varchar(22) : business_id" style="text;strokeColor=none;fillColor=none;align=left;verticalAlign=top;spacingLeft=4;spacingRight=4;overflow=hidden;rotatable=0;points=[[0,0.5],[1,0.5]];portConstraint=eastwest;" parent="Pv-6bgilXGz2zJRjLQK--76" vertex="1">
          <mxGeometry y="44.888888888888886" width="240" height="37" as="geometry" />
        </mxCell>
        <mxCell id="Pv-6bgilXGz2zJRjLQK--79" value="varchar(255) : key" style="text;strokeColor=none;fillColor=none;align=left;verticalAlign=top;spacingLeft=4;spacingRight=4;overflow=hidden;rotatable=0;points=[[0,0.5],[1,0.5]];portConstraint=eastwest;" parent="Pv-6bgilXGz2zJRjLQK--76" vertex="1">
          <mxGeometry y="81.88888888888889" width="240" height="37" as="geometry" />
        </mxCell>
        <mxCell id="Pv-6bgilXGz2zJRjLQK--80" value="varchar(255) : value" style="text;strokeColor=none;fillColor=none;align=left;verticalAlign=top;spacingLeft=4;spacingRight=4;overflow=hidden;rotatable=0;points=[[0,0.5],[1,0.5]];portConstraint=eastwest;" parent="Pv-6bgilXGz2zJRjLQK--76" vertex="1">
          <mxGeometry y="118.88888888888889" width="240" height="37" as="geometry" />
        </mxCell>
        <mxCell id="Pv-6bgilXGz2zJRjLQK--81" value="business" style="swimlane;fontStyle=1;align=center;verticalAlign=top;childLayout=stackLayout;horizontal=1;startSize=29.818181818181817;horizontalStack=0;resizeParent=1;resizeParentMax=0;resizeLast=0;collapsible=0;marginBottom=0;" parent="1" vertex="1">
          <mxGeometry x="647" y="20" width="248" height="337.8181818181818" as="geometry" />
        </mxCell>
        <mxCell id="Pv-6bgilXGz2zJRjLQK--82" value="real latitude" style="text;strokeColor=none;fillColor=none;align=left;verticalAlign=top;spacingLeft=4;spacingRight=4;overflow=hidden;rotatable=0;points=[[0,0.5],[1,0.5]];portConstraint=eastwest;" parent="Pv-6bgilXGz2zJRjLQK--81" vertex="1">
          <mxGeometry y="29.818181818181817" width="248" height="30" as="geometry" />
        </mxCell>
        <mxCell id="Pv-6bgilXGz2zJRjLQK--83" value="real longitude" style="text;strokeColor=none;fillColor=none;align=left;verticalAlign=top;spacingLeft=4;spacingRight=4;overflow=hidden;rotatable=0;points=[[0,0.5],[1,0.5]];portConstraint=eastwest;" parent="Pv-6bgilXGz2zJRjLQK--81" vertex="1">
          <mxGeometry y="59.81818181818181" width="248" height="30" as="geometry" />
        </mxCell>
        <mxCell id="Pv-6bgilXGz2zJRjLQK--84" value="integer review_count" style="text;strokeColor=none;fillColor=none;align=left;verticalAlign=top;spacingLeft=4;spacingRight=4;overflow=hidden;rotatable=0;points=[[0,0.5],[1,0.5]];portConstraint=eastwest;" parent="Pv-6bgilXGz2zJRjLQK--81" vertex="1">
          <mxGeometry y="89.81818181818181" width="248" height="30" as="geometry" />
        </mxCell>
        <mxCell id="Pv-6bgilXGz2zJRjLQK--85" value="integer is_open" style="text;strokeColor=none;fillColor=none;align=left;verticalAlign=top;spacingLeft=4;spacingRight=4;overflow=hidden;rotatable=0;points=[[0,0.5],[1,0.5]];portConstraint=eastwest;" parent="Pv-6bgilXGz2zJRjLQK--81" vertex="1">
          <mxGeometry y="119.81818181818181" width="248" height="30" as="geometry" />
        </mxCell>
        <mxCell id="Pv-6bgilXGz2zJRjLQK--86" style="line;strokeWidth=1;fillColor=none;align=left;verticalAlign=middle;spacingTop=-1;spacingLeft=3;spacingRight=3;rotatable=0;labelPosition=right;points=[];portConstraint=eastwest;strokeColor=inherit;" parent="Pv-6bgilXGz2zJRjLQK--81" vertex="1">
          <mxGeometry y="149.8181818181818" width="248" height="8" as="geometry" />
        </mxCell>
        <mxCell id="Pv-6bgilXGz2zJRjLQK--87" value="varchar(255) : name" style="text;strokeColor=none;fillColor=none;align=left;verticalAlign=top;spacingLeft=4;spacingRight=4;overflow=hidden;rotatable=0;points=[[0,0.5],[1,0.5]];portConstraint=eastwest;" parent="Pv-6bgilXGz2zJRjLQK--81" vertex="1">
          <mxGeometry y="157.8181818181818" width="248" height="30" as="geometry" />
        </mxCell>
        <mxCell id="Pv-6bgilXGz2zJRjLQK--88" value="varchar(255) : address" style="text;strokeColor=none;fillColor=none;align=left;verticalAlign=top;spacingLeft=4;spacingRight=4;overflow=hidden;rotatable=0;points=[[0,0.5],[1,0.5]];portConstraint=eastwest;" parent="Pv-6bgilXGz2zJRjLQK--81" vertex="1">
          <mxGeometry y="187.8181818181818" width="248" height="30" as="geometry" />
        </mxCell>
        <mxCell id="Pv-6bgilXGz2zJRjLQK--89" value="varchar(255) : city" style="text;strokeColor=none;fillColor=none;align=left;verticalAlign=top;spacingLeft=4;spacingRight=4;overflow=hidden;rotatable=0;points=[[0,0.5],[1,0.5]];portConstraint=eastwest;" parent="Pv-6bgilXGz2zJRjLQK--81" vertex="1">
          <mxGeometry y="217.8181818181818" width="248" height="30" as="geometry" />
        </mxCell>
        <mxCell id="Pv-6bgilXGz2zJRjLQK--90" value="varchar(255) : state" style="text;strokeColor=none;fillColor=none;align=left;verticalAlign=top;spacingLeft=4;spacingRight=4;overflow=hidden;rotatable=0;points=[[0,0.5],[1,0.5]];portConstraint=eastwest;" parent="Pv-6bgilXGz2zJRjLQK--81" vertex="1">
          <mxGeometry y="247.8181818181818" width="248" height="30" as="geometry" />
        </mxCell>
        <mxCell id="Pv-6bgilXGz2zJRjLQK--91" value="varchar(255) : postal_code" style="text;strokeColor=none;fillColor=none;align=left;verticalAlign=top;spacingLeft=4;spacingRight=4;overflow=hidden;rotatable=0;points=[[0,0.5],[1,0.5]];portConstraint=eastwest;" parent="Pv-6bgilXGz2zJRjLQK--81" vertex="1">
          <mxGeometry y="277.8181818181818" width="248" height="30" as="geometry" />
        </mxCell>
        <mxCell id="Pv-6bgilXGz2zJRjLQK--92" value="varchar(22) : business_id" style="text;strokeColor=none;fillColor=none;align=left;verticalAlign=top;spacingLeft=4;spacingRight=4;overflow=hidden;rotatable=0;points=[[0,0.5],[1,0.5]];portConstraint=eastwest;" parent="Pv-6bgilXGz2zJRjLQK--81" vertex="1">
          <mxGeometry y="307.8181818181818" width="248" height="30" as="geometry" />
        </mxCell>
        <mxCell id="Pv-6bgilXGz2zJRjLQK--93" value="business_categories" style="swimlane;fontStyle=1;align=center;verticalAlign=top;childLayout=stackLayout;horizontal=1;startSize=40.57142857142857;horizontalStack=0;resizeParent=1;resizeParentMax=0;resizeLast=0;collapsible=0;marginBottom=0;" parent="1" vertex="1">
          <mxGeometry x="310" y="370" width="277" height="130.57142857142856" as="geometry" />
        </mxCell>
        <mxCell id="Pv-6bgilXGz2zJRjLQK--94" style="line;strokeWidth=1;fillColor=none;align=left;verticalAlign=middle;spacingTop=-1;spacingLeft=3;spacingRight=3;rotatable=0;labelPosition=right;points=[];portConstraint=eastwest;strokeColor=inherit;" parent="Pv-6bgilXGz2zJRjLQK--93" vertex="1">
          <mxGeometry y="40.57142857142857" width="277" height="8" as="geometry" />
        </mxCell>
        <mxCell id="Pv-6bgilXGz2zJRjLQK--95" value="varchar(22) : business_id" style="text;strokeColor=none;fillColor=none;align=left;verticalAlign=top;spacingLeft=4;spacingRight=4;overflow=hidden;rotatable=0;points=[[0,0.5],[1,0.5]];portConstraint=eastwest;" parent="Pv-6bgilXGz2zJRjLQK--93" vertex="1">
          <mxGeometry y="48.57142857142857" width="277" height="41" as="geometry" />
        </mxCell>
        <mxCell id="Pv-6bgilXGz2zJRjLQK--96" value="varchar(255) : category" style="text;strokeColor=none;fillColor=none;align=left;verticalAlign=top;spacingLeft=4;spacingRight=4;overflow=hidden;rotatable=0;points=[[0,0.5],[1,0.5]];portConstraint=eastwest;" parent="Pv-6bgilXGz2zJRjLQK--93" vertex="1">
          <mxGeometry y="89.57142857142857" width="277" height="41" as="geometry" />
        </mxCell>
        <mxCell id="Pv-6bgilXGz2zJRjLQK--97" value="business_parking" style="swimlane;fontStyle=1;align=center;verticalAlign=top;childLayout=stackLayout;horizontal=1;startSize=33.142857142857146;horizontalStack=0;resizeParent=1;resizeParentMax=0;resizeLast=0;collapsible=0;marginBottom=0;" parent="1" vertex="1">
          <mxGeometry x="637.5" y="430" width="267" height="239.14285714285714" as="geometry" />
        </mxCell>
        <mxCell id="Pv-6bgilXGz2zJRjLQK--98" value="integer garage" style="text;strokeColor=none;fillColor=none;align=left;verticalAlign=top;spacingLeft=4;spacingRight=4;overflow=hidden;rotatable=0;points=[[0,0.5],[1,0.5]];portConstraint=eastwest;" parent="Pv-6bgilXGz2zJRjLQK--97" vertex="1">
          <mxGeometry y="33.142857142857146" width="267" height="33" as="geometry" />
        </mxCell>
        <mxCell id="Pv-6bgilXGz2zJRjLQK--99" value="integer street" style="text;strokeColor=none;fillColor=none;align=left;verticalAlign=top;spacingLeft=4;spacingRight=4;overflow=hidden;rotatable=0;points=[[0,0.5],[1,0.5]];portConstraint=eastwest;" parent="Pv-6bgilXGz2zJRjLQK--97" vertex="1">
          <mxGeometry y="66.14285714285714" width="267" height="33" as="geometry" />
        </mxCell>
        <mxCell id="Pv-6bgilXGz2zJRjLQK--100" value="integer validated" style="text;strokeColor=none;fillColor=none;align=left;verticalAlign=top;spacingLeft=4;spacingRight=4;overflow=hidden;rotatable=0;points=[[0,0.5],[1,0.5]];portConstraint=eastwest;" parent="Pv-6bgilXGz2zJRjLQK--97" vertex="1">
          <mxGeometry y="99.14285714285714" width="267" height="33" as="geometry" />
        </mxCell>
        <mxCell id="Pv-6bgilXGz2zJRjLQK--101" value="integer lot" style="text;strokeColor=none;fillColor=none;align=left;verticalAlign=top;spacingLeft=4;spacingRight=4;overflow=hidden;rotatable=0;points=[[0,0.5],[1,0.5]];portConstraint=eastwest;" parent="Pv-6bgilXGz2zJRjLQK--97" vertex="1">
          <mxGeometry y="132.14285714285714" width="267" height="33" as="geometry" />
        </mxCell>
        <mxCell id="Pv-6bgilXGz2zJRjLQK--102" value="integer valet" style="text;strokeColor=none;fillColor=none;align=left;verticalAlign=top;spacingLeft=4;spacingRight=4;overflow=hidden;rotatable=0;points=[[0,0.5],[1,0.5]];portConstraint=eastwest;" parent="Pv-6bgilXGz2zJRjLQK--97" vertex="1">
          <mxGeometry y="165.14285714285714" width="267" height="33" as="geometry" />
        </mxCell>
        <mxCell id="Pv-6bgilXGz2zJRjLQK--103" style="line;strokeWidth=1;fillColor=none;align=left;verticalAlign=middle;spacingTop=-1;spacingLeft=3;spacingRight=3;rotatable=0;labelPosition=right;points=[];portConstraint=eastwest;strokeColor=inherit;" parent="Pv-6bgilXGz2zJRjLQK--97" vertex="1">
          <mxGeometry y="198.14285714285714" width="267" height="8" as="geometry" />
        </mxCell>
        <mxCell id="Pv-6bgilXGz2zJRjLQK--104" value="varchar(22) : business_id" style="text;strokeColor=none;fillColor=none;align=left;verticalAlign=top;spacingLeft=4;spacingRight=4;overflow=hidden;rotatable=0;points=[[0,0.5],[1,0.5]];portConstraint=eastwest;" parent="Pv-6bgilXGz2zJRjLQK--97" vertex="1">
          <mxGeometry y="206.14285714285714" width="267" height="33" as="geometry" />
        </mxCell>
        <mxCell id="Pv-6bgilXGz2zJRjLQK--105" value="checkin_date" style="swimlane;fontStyle=1;align=center;verticalAlign=top;childLayout=stackLayout;horizontal=1;startSize=45.333333333333336;horizontalStack=0;resizeParent=1;resizeParentMax=0;resizeLast=0;collapsible=0;marginBottom=0;" parent="1" vertex="1">
          <mxGeometry x="960" y="410" width="253" height="143.33333333333334" as="geometry" />
        </mxCell>
        <mxCell id="Pv-6bgilXGz2zJRjLQK--106" value="datetime date" style="text;strokeColor=none;fillColor=none;align=left;verticalAlign=top;spacingLeft=4;spacingRight=4;overflow=hidden;rotatable=0;points=[[0,0.5],[1,0.5]];portConstraint=eastwest;" parent="Pv-6bgilXGz2zJRjLQK--105" vertex="1">
          <mxGeometry y="45.333333333333336" width="253" height="45" as="geometry" />
        </mxCell>
        <mxCell id="Pv-6bgilXGz2zJRjLQK--107" style="line;strokeWidth=1;fillColor=none;align=left;verticalAlign=middle;spacingTop=-1;spacingLeft=3;spacingRight=3;rotatable=0;labelPosition=right;points=[];portConstraint=eastwest;strokeColor=inherit;" parent="Pv-6bgilXGz2zJRjLQK--105" vertex="1">
          <mxGeometry y="90.33333333333334" width="253" height="8" as="geometry" />
        </mxCell>
        <mxCell id="Pv-6bgilXGz2zJRjLQK--108" value="varchar(22) : business_id" style="text;strokeColor=none;fillColor=none;align=left;verticalAlign=top;spacingLeft=4;spacingRight=4;overflow=hidden;rotatable=0;points=[[0,0.5],[1,0.5]];portConstraint=eastwest;" parent="Pv-6bgilXGz2zJRjLQK--105" vertex="1">
          <mxGeometry y="98.33333333333334" width="253" height="45" as="geometry" />
        </mxCell>
        <mxCell id="Pv-6bgilXGz2zJRjLQK--109" value="business_hours" style="swimlane;fontStyle=1;align=center;verticalAlign=top;childLayout=stackLayout;horizontal=1;startSize=30.105263157894736;horizontalStack=0;resizeParent=1;resizeParentMax=0;resizeLast=0;collapsible=0;marginBottom=0;" parent="1" vertex="1">
          <mxGeometry x="1010" y="30" width="224" height="278.10526315789474" as="geometry" />
        </mxCell>
        <mxCell id="Pv-6bgilXGz2zJRjLQK--110" style="line;strokeWidth=1;fillColor=none;align=left;verticalAlign=middle;spacingTop=-1;spacingLeft=3;spacingRight=3;rotatable=0;labelPosition=right;points=[];portConstraint=eastwest;strokeColor=inherit;" parent="Pv-6bgilXGz2zJRjLQK--109" vertex="1">
          <mxGeometry y="30.105263157894736" width="224" height="8" as="geometry" />
        </mxCell>
        <mxCell id="Pv-6bgilXGz2zJRjLQK--111" value="varchar(20) : monday" style="text;strokeColor=none;fillColor=none;align=left;verticalAlign=top;spacingLeft=4;spacingRight=4;overflow=hidden;rotatable=0;points=[[0,0.5],[1,0.5]];portConstraint=eastwest;" parent="Pv-6bgilXGz2zJRjLQK--109" vertex="1">
          <mxGeometry y="38.10526315789474" width="224" height="30" as="geometry" />
        </mxCell>
        <mxCell id="Pv-6bgilXGz2zJRjLQK--112" value="varchar(20) : tuesday" style="text;strokeColor=none;fillColor=none;align=left;verticalAlign=top;spacingLeft=4;spacingRight=4;overflow=hidden;rotatable=0;points=[[0,0.5],[1,0.5]];portConstraint=eastwest;" parent="Pv-6bgilXGz2zJRjLQK--109" vertex="1">
          <mxGeometry y="68.10526315789474" width="224" height="30" as="geometry" />
        </mxCell>
        <mxCell id="Pv-6bgilXGz2zJRjLQK--113" value="varchar(20) : wednesday" style="text;strokeColor=none;fillColor=none;align=left;verticalAlign=top;spacingLeft=4;spacingRight=4;overflow=hidden;rotatable=0;points=[[0,0.5],[1,0.5]];portConstraint=eastwest;" parent="Pv-6bgilXGz2zJRjLQK--109" vertex="1">
          <mxGeometry y="98.10526315789474" width="224" height="30" as="geometry" />
        </mxCell>
        <mxCell id="Pv-6bgilXGz2zJRjLQK--114" value="varchar(20) : thursday" style="text;strokeColor=none;fillColor=none;align=left;verticalAlign=top;spacingLeft=4;spacingRight=4;overflow=hidden;rotatable=0;points=[[0,0.5],[1,0.5]];portConstraint=eastwest;" parent="Pv-6bgilXGz2zJRjLQK--109" vertex="1">
          <mxGeometry y="128.10526315789474" width="224" height="30" as="geometry" />
        </mxCell>
        <mxCell id="Pv-6bgilXGz2zJRjLQK--115" value="varchar(20) : friday" style="text;strokeColor=none;fillColor=none;align=left;verticalAlign=top;spacingLeft=4;spacingRight=4;overflow=hidden;rotatable=0;points=[[0,0.5],[1,0.5]];portConstraint=eastwest;" parent="Pv-6bgilXGz2zJRjLQK--109" vertex="1">
          <mxGeometry y="158.10526315789474" width="224" height="30" as="geometry" />
        </mxCell>
        <mxCell id="Pv-6bgilXGz2zJRjLQK--116" value="varchar(20) : saturday" style="text;strokeColor=none;fillColor=none;align=left;verticalAlign=top;spacingLeft=4;spacingRight=4;overflow=hidden;rotatable=0;points=[[0,0.5],[1,0.5]];portConstraint=eastwest;" parent="Pv-6bgilXGz2zJRjLQK--109" vertex="1">
          <mxGeometry y="188.10526315789474" width="224" height="30" as="geometry" />
        </mxCell>
        <mxCell id="Pv-6bgilXGz2zJRjLQK--117" value="varchar(20) : sunday" style="text;strokeColor=none;fillColor=none;align=left;verticalAlign=top;spacingLeft=4;spacingRight=4;overflow=hidden;rotatable=0;points=[[0,0.5],[1,0.5]];portConstraint=eastwest;" parent="Pv-6bgilXGz2zJRjLQK--109" vertex="1">
          <mxGeometry y="218.10526315789474" width="224" height="30" as="geometry" />
        </mxCell>
        <mxCell id="Pv-6bgilXGz2zJRjLQK--118" value="varchar(22) : business_id" style="text;strokeColor=none;fillColor=none;align=left;verticalAlign=top;spacingLeft=4;spacingRight=4;overflow=hidden;rotatable=0;points=[[0,0.5],[1,0.5]];portConstraint=eastwest;" parent="Pv-6bgilXGz2zJRjLQK--109" vertex="1">
          <mxGeometry y="248.10526315789474" width="224" height="30" as="geometry" />
        </mxCell>
        <mxCell id="Pv-6bgilXGz2zJRjLQK--119" value="tips" style="swimlane;fontStyle=1;align=center;verticalAlign=top;childLayout=stackLayout;horizontal=1;startSize=32;horizontalStack=0;resizeParent=1;resizeParentMax=0;resizeLast=0;collapsible=0;marginBottom=0;" parent="1" vertex="1">
          <mxGeometry x="668" y="-220" width="206" height="208" as="geometry" />
        </mxCell>
        <mxCell id="Pv-6bgilXGz2zJRjLQK--120" value="text business_id" style="text;strokeColor=none;fillColor=none;align=left;verticalAlign=top;spacingLeft=4;spacingRight=4;overflow=hidden;rotatable=0;points=[[0,0.5],[1,0.5]];portConstraint=eastwest;" parent="Pv-6bgilXGz2zJRjLQK--119" vertex="1">
          <mxGeometry y="32" width="206" height="32" as="geometry" />
        </mxCell>
        <mxCell id="Pv-6bgilXGz2zJRjLQK--121" value="text compliment_count" style="text;strokeColor=none;fillColor=none;align=left;verticalAlign=top;spacingLeft=4;spacingRight=4;overflow=hidden;rotatable=0;points=[[0,0.5],[1,0.5]];portConstraint=eastwest;" parent="Pv-6bgilXGz2zJRjLQK--119" vertex="1">
          <mxGeometry y="64" width="206" height="32" as="geometry" />
        </mxCell>
        <mxCell id="Pv-6bgilXGz2zJRjLQK--122" value="text date" style="text;strokeColor=none;fillColor=none;align=left;verticalAlign=top;spacingLeft=4;spacingRight=4;overflow=hidden;rotatable=0;points=[[0,0.5],[1,0.5]];portConstraint=eastwest;" parent="Pv-6bgilXGz2zJRjLQK--119" vertex="1">
          <mxGeometry y="96" width="206" height="32" as="geometry" />
        </mxCell>
        <mxCell id="Pv-6bgilXGz2zJRjLQK--123" value="text text" style="text;strokeColor=none;fillColor=none;align=left;verticalAlign=top;spacingLeft=4;spacingRight=4;overflow=hidden;rotatable=0;points=[[0,0.5],[1,0.5]];portConstraint=eastwest;" parent="Pv-6bgilXGz2zJRjLQK--119" vertex="1">
          <mxGeometry y="128" width="206" height="32" as="geometry" />
        </mxCell>
        <mxCell id="Pv-6bgilXGz2zJRjLQK--124" value="text user_id" style="text;strokeColor=none;fillColor=none;align=left;verticalAlign=top;spacingLeft=4;spacingRight=4;overflow=hidden;rotatable=0;points=[[0,0.5],[1,0.5]];portConstraint=eastwest;" parent="Pv-6bgilXGz2zJRjLQK--119" vertex="1">
          <mxGeometry y="160" width="206" height="32" as="geometry" />
        </mxCell>
        <mxCell id="Pv-6bgilXGz2zJRjLQK--125" style="line;strokeWidth=1;fillColor=none;align=left;verticalAlign=middle;spacingTop=-1;spacingLeft=3;spacingRight=3;rotatable=0;labelPosition=right;points=[];portConstraint=eastwest;strokeColor=inherit;" parent="Pv-6bgilXGz2zJRjLQK--119" vertex="1">
          <mxGeometry y="192" width="206" height="16" as="geometry" />
        </mxCell>
        <mxCell id="Pv-6bgilXGz2zJRjLQK--126" value="business_id" style="curved=1;startArrow=none;endArrow=open;endSize=12;exitX=1;exitY=0.5;entryX=0;entryY=0.62;rounded=0;exitDx=0;exitDy=0;fontStyle=1" parent="1" source="Pv-6bgilXGz2zJRjLQK--79" target="Pv-6bgilXGz2zJRjLQK--81" edge="1">
          <mxGeometry relative="1" as="geometry">
            <Array as="points" />
          </mxGeometry>
        </mxCell>
        <mxCell id="Pv-6bgilXGz2zJRjLQK--127" value="business_id" style="curved=1;startArrow=none;endArrow=open;endSize=12;exitX=0.5;exitY=0;entryX=0;entryY=0.73;rounded=0;fontStyle=1" parent="1" source="Pv-6bgilXGz2zJRjLQK--93" target="Pv-6bgilXGz2zJRjLQK--81" edge="1">
          <mxGeometry relative="1" as="geometry">
            <Array as="points">
              <mxPoint x="448" y="392" />
            </Array>
          </mxGeometry>
        </mxCell>
        <mxCell id="Pv-6bgilXGz2zJRjLQK--128" value="business_id" style="curved=1;startArrow=none;endArrow=open;endSize=12;exitX=0.5;exitY=0;entryX=0.5;entryY=1;rounded=0;fontStyle=1" parent="1" source="Pv-6bgilXGz2zJRjLQK--97" target="Pv-6bgilXGz2zJRjLQK--81" edge="1">
          <mxGeometry relative="1" as="geometry">
            <Array as="points" />
          </mxGeometry>
        </mxCell>
        <mxCell id="Pv-6bgilXGz2zJRjLQK--129" value="business_id" style="curved=1;startArrow=none;endArrow=open;endSize=12;exitX=0.5;exitY=0;entryX=1;entryY=0.74;rounded=0;fontStyle=1" parent="1" source="Pv-6bgilXGz2zJRjLQK--105" target="Pv-6bgilXGz2zJRjLQK--81" edge="1">
          <mxGeometry relative="1" as="geometry">
            <Array as="points">
              <mxPoint x="1081" y="392" />
            </Array>
          </mxGeometry>
        </mxCell>
        <mxCell id="Pv-6bgilXGz2zJRjLQK--130" value="business_id" style="curved=1;startArrow=none;endArrow=open;endSize=12;exitX=0;exitY=0.5;entryX=1;entryY=0.63;rounded=0;exitDx=0;exitDy=0;fontStyle=1" parent="1" source="Pv-6bgilXGz2zJRjLQK--114" target="Pv-6bgilXGz2zJRjLQK--81" edge="1">
          <mxGeometry x="-0.0036" relative="1" as="geometry">
            <Array as="points" />
            <mxPoint as="offset" />
          </mxGeometry>
        </mxCell>
      </root>
    </mxGraphModel>
  </diagram>
</mxfile>
